<svg xmlns="http://www.w3.org/2000/svg" width="18" height="26" viewBox="0 0 18 26">
    <g fill="none" fill-rule="evenodd">
        <g fill="#1C1C1C" fill-rule="nonzero">
            <g>
                <path d="M8.55 0C3.833.011.011 3.833 0 8.55c0 4.53 7.09 17.18 8.55 17.18 1.46 0 8.55-12.65 8.55-17.18C17.089 3.833 13.267.011 8.55 0zm0 12.7c-2.242 0-4.06-1.818-4.06-4.06 0-2.242 1.818-4.06 4.06-4.06 2.242 0 4.06 1.818 4.06 4.06 0 1.077-.428 2.11-1.19 2.87-.76.762-1.793 1.19-2.87 1.19z" transform="translate(-241 -1902) translate(241 1902)"/>
            </g>
        </g>
    </g>
</svg>
