<svg xmlns="http://www.w3.org/2000/svg" width="28" height="18" viewBox="0 0 28 18">
    <g fill="none" fill-rule="evenodd">
        <g fill="#1C1C1C" fill-rule="nonzero">
            <g>
                <path d="M27.28 2.89V14.6c-.001.495-.121.982-.35 1.42l-9.57-7.57 9.32-7.37c.392.522.602 1.157.6 1.81zM25.98 17.07c-.42.27-.91.416-1.41.42H2.76c-.5-.004-.99-.15-1.41-.42l9.76-7.72 1.09.87c.89.663 2.11.663 3 0l1.09-.87 9.69 7.72zM9.92 8.45L.35 16.02c-.229-.438-.349-.925-.35-1.42V2.89c-.002-.653.208-1.288.6-1.81l9.32 7.37zM25.54.19l-9.32 7.36-1.14.9-.76.6c-.41.29-.96.29-1.37 0l-.76-.6-1.13-.9L1.76.19c.316-.133.657-.198 1-.19h21.86c.316.003.629.067.92.19z" transform="translate(-236 -1983) translate(236 1983)"/>
            </g>
        </g>
    </g>
</svg>
