<svg xmlns="http://www.w3.org/2000/svg" width="20" height="13" viewBox="0 0 20 13">
    <defs>
        <linearGradient id="v8ievjdeqa" x1="-342.295%" x2="929.252%" y1="513.144%" y2="-915.513%">
            <stop offset="2.59%" stop-color="#865E34"/>
            <stop offset="16.17%" stop-color="#D28A3A"/>
            <stop offset="29.71%" stop-color="#FAC551"/>
            <stop offset="42.47%" stop-color="#FFF696"/>
            <stop offset="54.33%" stop-color="#FAC551"/>
            <stop offset="63.29%" stop-color="#C07D31"/>
            <stop offset="67.4%" stop-color="#C38133"/>
            <stop offset="71.64%" stop-color="#CC8E3A"/>
            <stop offset="75.94%" stop-color="#DAA245"/>
            <stop offset="80.26%" stop-color="#EFBF55"/>
            <stop offset="82.62%" stop-color="#FCD25F"/>
            <stop offset="100%" stop-color="#FCBC58"/>
        </linearGradient>
        <linearGradient id="4oc1m376gb" x1="-275.661%" x2="884.352%" y1="134.581%" y2="-150.456%">
            <stop offset="2.59%" stop-color="#865E34"/>
            <stop offset="16.17%" stop-color="#D28A3A"/>
            <stop offset="29.71%" stop-color="#FAC551"/>
            <stop offset="42.47%" stop-color="#FFF696"/>
            <stop offset="54.33%" stop-color="#FAC551"/>
            <stop offset="63.29%" stop-color="#C07D31"/>
            <stop offset="67.4%" stop-color="#C38133"/>
            <stop offset="71.64%" stop-color="#CC8E3A"/>
            <stop offset="75.94%" stop-color="#DAA245"/>
            <stop offset="80.26%" stop-color="#EFBF55"/>
            <stop offset="82.62%" stop-color="#FCD25F"/>
            <stop offset="100%" stop-color="#FCBC58"/>
        </linearGradient>
        <linearGradient id="j1e95mt2gc" x1="-306.932%" x2="964.615%" y1="428.66%" y2="-999.997%">
            <stop offset="2.59%" stop-color="#865E34"/>
            <stop offset="16.17%" stop-color="#D28A3A"/>
            <stop offset="29.71%" stop-color="#FAC551"/>
            <stop offset="42.47%" stop-color="#FFF696"/>
            <stop offset="54.33%" stop-color="#FAC551"/>
            <stop offset="63.29%" stop-color="#C07D31"/>
            <stop offset="67.4%" stop-color="#C38133"/>
            <stop offset="71.64%" stop-color="#CC8E3A"/>
            <stop offset="75.94%" stop-color="#DAA245"/>
            <stop offset="80.26%" stop-color="#EFBF55"/>
            <stop offset="82.62%" stop-color="#FCD25F"/>
            <stop offset="100%" stop-color="#FCBC58"/>
        </linearGradient>
        <linearGradient id="omn6u8mhhd" x1="-320.316%" x2="881.526%" y1="150.724%" y2="-198.334%">
            <stop offset="2.59%" stop-color="#865E34"/>
            <stop offset="16.17%" stop-color="#D28A3A"/>
            <stop offset="29.71%" stop-color="#FAC551"/>
            <stop offset="42.47%" stop-color="#FFF696"/>
            <stop offset="54.33%" stop-color="#FAC551"/>
            <stop offset="63.29%" stop-color="#C07D31"/>
            <stop offset="67.4%" stop-color="#C38133"/>
            <stop offset="71.64%" stop-color="#CC8E3A"/>
            <stop offset="75.94%" stop-color="#DAA245"/>
            <stop offset="80.26%" stop-color="#EFBF55"/>
            <stop offset="82.62%" stop-color="#FCD25F"/>
            <stop offset="100%" stop-color="#FCBC58"/>
        </linearGradient>
    </defs>
    <g fill="none" fill-rule="evenodd">
        <g fill-rule="nonzero">
            <g>
                <path fill="#333" d="M2.08.37h15.28c.24 0 .47.05.68.13l-6.51 5.15-.79.63-.53.42c-.25.2-.71.2-.96 0l-.53-.42-.79-.63L1.42.5c.2-.08.43-.13.66-.13zM.19 10.58V2.39c0-.48.16-.92.42-1.26l6.52 5.15-6.69 5.29c-.16-.29-.25-.63-.25-.99zm17.17 2.02H2.08c-.36 0-.7-.11-.98-.29l6.82-5.39.76.6c.29.23.67.35 1.04.35s.75-.11 1.04-.35l.76-.6 6.82 5.39c-.28.18-.62.29-.98.29zm1.9-2.02c0 .36-.09.7-.24.99l-6.69-5.29 6.52-5.15c.26.35.42.79.42 1.26v8.19h-.01z" transform="translate(-1134 -2210) translate(1134 2210)"/>
                <path fill="#333" d="M12.33 6.28l6.69 5.29c.16-.29.24-.63.24-.99V2.39c0-.48-.16-.92-.42-1.26l-6.51 5.15z" transform="translate(-1134 -2210) translate(1134 2210)"/>
                <path fill="url(#v8ievjdeqa)" d="M12.33 6.28l6.69 5.29c.16-.29.24-.63.24-.99V2.39c0-.48-.16-.92-.42-1.26l-6.51 5.15z" transform="translate(-1134 -2210) translate(1134 2210)"/>
                <path fill="#333" d="M10.77 7.52c-.29.23-.67.35-1.04.35s-.75-.11-1.04-.35l-.76-.6-6.82 5.39c.29.19.62.29.98.29h15.28c.36 0 .7-.11.98-.29l-6.82-5.39-.76.6z" transform="translate(-1134 -2210) translate(1134 2210)"/>
                <path fill="url(#4oc1m376gb)" d="M10.77 7.52c-.29.23-.67.35-1.04.35s-.75-.11-1.04-.35l-.76-.6-6.82 5.39c.29.19.62.29.98.29h15.28c.36 0 .7-.11.98-.29l-6.82-5.39-.76.6z" transform="translate(-1134 -2210) translate(1134 2210)"/>
                <path fill="#333" d="M.61 1.13c-.26.35-.42.79-.42 1.26v8.19c0 .36.09.7.24.99l6.69-5.29L.61 1.13z" transform="translate(-1134 -2210) translate(1134 2210)"/>
                <path fill="url(#j1e95mt2gc)" d="M.61 1.13c-.26.35-.42.79-.42 1.26v8.19c0 .36.09.7.24.99l6.69-5.29L.61 1.13z" transform="translate(-1134 -2210) translate(1134 2210)"/>
                <path fill="#333" d="M8.71 6.28l.53.42c.25.2.71.2.96 0l.53-.42.79-.63L18.03.5c-.21-.09-.44-.13-.68-.13H2.07c-.24 0-.47.05-.68.13L7.9 5.65l.81.63z" transform="translate(-1134 -2210) translate(1134 2210)"/>
                <path fill="url(#omn6u8mhhd)" d="M8.71 6.28l.53.42c.25.2.71.2.96 0l.53-.42.79-.63L18.03.5c-.21-.09-.44-.13-.68-.13H2.07c-.24 0-.47.05-.68.13L7.9 5.65l.81.63z" transform="translate(-1134 -2210) translate(1134 2210)"/>
            </g>
        </g>
    </g>
</svg>
