<?xml version="1.0" encoding="UTF-8"?>
<svg width="21px" height="21px" viewBox="0 0 21 21" version="1.1" xmlns="http://www.w3.org/2000/svg">
    <title>Twitter icon 32p</title>
    <defs>
        <linearGradient x1="-508.840277%" y1="480.890172%" x2="526.019416%" y2="-319.669767%" id="linearGradient-1">
            <stop stop-color="#865E34" offset="0%"></stop>
            <stop stop-color="#D28A3A" offset="16.17%"></stop>
            <stop stop-color="#FAC551" offset="29.71%"></stop>
            <stop stop-color="#FFF696" offset="42.47%"></stop>
            <stop stop-color="#FAC551" offset="54.33%"></stop>
            <stop stop-color="#C07D31" offset="63.29%"></stop>
            <stop stop-color="#C38133" offset="67.4%"></stop>
            <stop stop-color="#CC8E3A" offset="71.64%"></stop>
            <stop stop-color="#DAA245" offset="75.94%"></stop>
            <stop stop-color="#EFBF55" offset="80.26%"></stop>
            <stop stop-color="#FCD25F" offset="82.62%"></stop>
            <stop stop-color="#FCBC58" offset="100%"></stop>
        </linearGradient>
    </defs>
    <g id="Welcome" stroke="none" stroke-width="1" fill="none" fill-rule="evenodd">
        <g id="Desktop-HD" transform="translate(-1226.000000, -2206.000000)">
            <g id="Twitter-icon-32p" transform="translate(1226.000000, 2206.000000)">
                <rect id="Rectangle" x="0" y="0" width="21" height="21"></rect>
                <g id="icons8-twitter-circled-copy" transform="translate(1.312500, 1.312500)" fill="url(#linearGradient-1)" fill-rule="nonzero">
                    <path d="M9.1875,0 C4.12119293,0 0,4.12119293 0,9.1875 C0,14.2538071 4.12119293,18.375 9.1875,18.375 C14.2538071,18.375 18.375,14.2538071 18.375,9.1875 C18.375,4.12119293 14.2538071,0 9.1875,0 Z M13.6761929,7.39953261 C13.6801875,7.49380435 13.6825842,7.58967391 13.6825842,7.68594293 C13.6825842,10.6091658 11.456413,13.9809783 7.38635054,13.9809783 C6.13685054,13.9809783 4.9732337,13.6146766 3.99456522,12.986731 C4.16752989,13.0075027 4.3428913,13.0174891 4.52224728,13.0174891 C5.55923641,13.0174891 6.51353804,12.6643696 7.2701087,12.0707772 C6.30182609,12.0532011 5.48533696,11.4120734 5.2029212,10.5340679 C5.33833696,10.5600326 5.47694837,10.5740136 5.6199538,10.5740136 C5.82167935,10.5740136 6.01741304,10.54725 6.20236141,10.4961196 C5.1909375,10.2919973 4.428375,9.3988125 4.428375,8.32627174 C4.428375,8.31668478 4.428375,8.30749728 4.428375,8.29830978 C4.72676902,8.46408424 5.06750543,8.56394837 5.43061141,8.57553261 C4.83622011,8.17807337 4.44635054,7.50139402 4.44635054,6.73363859 C4.44635054,6.32819022 4.55500272,5.94830707 4.74554348,5.62075272 C5.83725815,6.95933152 7.46783967,7.84013315 9.30653804,7.93280707 C9.26858967,7.77062772 9.24861685,7.60205707 9.24861685,7.42869293 C9.24861685,6.20675543 10.239269,5.21610326 11.461606,5.21610326 C12.0979402,5.21610326 12.6727582,5.48453804 13.0762092,5.91475272 C13.5799239,5.8156875 14.0540788,5.63153804 14.4814973,5.37828261 C14.3165217,5.89438043 13.9653995,6.32819022 13.5080217,6.60221739 C13.956212,6.5478913 14.3820326,6.42965217 14.7794918,6.25349185 C14.4830951,6.69728804 14.1080054,7.08755707 13.6761929,7.39953261 Z" id="Shape"></path>
                </g>
            </g>
        </g>
    </g>
</svg>
